<mxfile host="65bd71144e">
    <diagram id="Ud7PFp5KdEAXcQVSgEVQ" name="Page-1">
        <mxGraphModel dx="736" dy="461" grid="1" gridSize="10" guides="1" tooltips="1" connect="1" arrows="1" fold="1" page="1" pageScale="1" pageWidth="827" pageHeight="1169" math="0" shadow="0">
            <root>
                <mxCell id="0"/>
                <mxCell id="1" parent="0"/>
                <mxCell id="8" value="" style="rounded=0;whiteSpace=wrap;html=1;fontFamily=Verdana;fontSize=20;fontColor=#666666;fillColor=#CCFFE6;strokeColor=none;" vertex="1" parent="1">
                    <mxGeometry x="490" y="110" width="21" height="60" as="geometry"/>
                </mxCell>
                <mxCell id="7" value="" style="rounded=0;whiteSpace=wrap;html=1;fontFamily=Verdana;fontSize=20;fontColor=#666666;fillColor=#FFCCE6;strokeColor=none;" vertex="1" parent="1">
                    <mxGeometry x="511" y="110" width="20" height="60" as="geometry"/>
                </mxCell>
                <mxCell id="6" value="" style="rounded=0;whiteSpace=wrap;html=1;fontFamily=Verdana;fontSize=20;fontColor=#666666;fillColor=#CCCCCC;strokeColor=none;" vertex="1" parent="1">
                    <mxGeometry x="596" y="110" width="20" height="60" as="geometry"/>
                </mxCell>
                <mxCell id="5" value="" style="rounded=0;whiteSpace=wrap;html=1;fontFamily=Verdana;fontSize=20;fontColor=#666666;fillColor=#CCCCCC;strokeColor=none;" vertex="1" parent="1">
                    <mxGeometry x="274" y="110" width="20" height="60" as="geometry"/>
                </mxCell>
                <mxCell id="2" value="&lt;font style=&quot;font-size: 36px&quot; face=&quot;Courier New&quot;&gt;f&quot;bla {2*math.pi=:.2f} bla&quot;&lt;/font&gt;" style="text;html=1;strokeColor=none;fillColor=none;align=center;verticalAlign=middle;whiteSpace=wrap;rounded=0;" vertex="1" parent="1">
                    <mxGeometry x="140" y="120" width="590" height="40" as="geometry"/>
                </mxCell>
                <mxCell id="3" value="&lt;font style=&quot;font-size: 20px&quot; face=&quot;Verdana&quot; color=&quot;#666666&quot;&gt;expression&lt;/font&gt;" style="text;html=1;strokeColor=none;fillColor=none;align=center;verticalAlign=middle;whiteSpace=wrap;rounded=0;fontFamily=Courier New;fontSize=36;" vertex="1" parent="1">
                    <mxGeometry x="330" y="170" width="120" height="30" as="geometry"/>
                </mxCell>
                <mxCell id="4" value="&lt;font style=&quot;font-size: 20px&quot; face=&quot;Verdana&quot; color=&quot;#666666&quot;&gt;format&lt;/font&gt;" style="text;html=1;strokeColor=none;fillColor=none;align=center;verticalAlign=middle;whiteSpace=wrap;rounded=0;fontFamily=Courier New;fontSize=36;" vertex="1" parent="1">
                    <mxGeometry x="540" y="170" width="60" height="30" as="geometry"/>
                </mxCell>
                <mxCell id="9" value="&lt;font style=&quot;font-size: 12px&quot;&gt;optionnel&lt;/font&gt;" style="text;html=1;strokeColor=none;fillColor=none;align=center;verticalAlign=middle;whiteSpace=wrap;rounded=0;fontFamily=Verdana;fontSize=20;fontColor=#666666;" vertex="1" parent="1">
                    <mxGeometry x="450" y="50" width="60" height="30" as="geometry"/>
                </mxCell>
                <mxCell id="10" value="" style="endArrow=classic;html=1;fontFamily=Verdana;fontSize=12;fontColor=#666666;" edge="1" parent="1">
                    <mxGeometry width="50" height="50" relative="1" as="geometry">
                        <mxPoint x="500" y="80" as="sourcePoint"/>
                        <mxPoint x="500" y="110" as="targetPoint"/>
                    </mxGeometry>
                </mxCell>
                <mxCell id="11" value="" style="shape=crossbar;whiteSpace=wrap;html=1;rounded=1;fontFamily=Verdana;fontSize=12;fontColor=#666666;fillColor=#CCFFE6;" vertex="1" parent="1">
                    <mxGeometry x="517" y="90" width="79" height="20" as="geometry"/>
                </mxCell>
                <mxCell id="12" value="&lt;font style=&quot;font-size: 12px&quot;&gt;optionnel&lt;/font&gt;" style="text;html=1;strokeColor=none;fillColor=none;align=center;verticalAlign=middle;whiteSpace=wrap;rounded=0;fontFamily=Verdana;fontSize=20;fontColor=#666666;" vertex="1" parent="1">
                    <mxGeometry x="530" y="60" width="60" height="30" as="geometry"/>
                </mxCell>
            </root>
        </mxGraphModel>
    </diagram>
</mxfile>